# xmcd CD database file
#
# Track frame offsets:
#	150
#	14701
#	34112
#	58534
#	76434
#	91864
#	108091
#	125582
#	140357
#	155272
#	169520
#	184200
#	199773
#	217708
#	245652
#
# Disc length: 3671 seconds
#
# Revision: 0
# Processed by: cddbd v1.5.2PL0 Copyright (c) Steve Scherf et al.
# Submitted via: CDex 1.51
#
DISCID=c20e550f
DTITLE=Calogero - Version Symphonique
DYEAR=2010
DGENRE=Blues
TTITLE0=En Apesanteur
TTITLE1=Prendre Racine
TTITLE2=Tien An Men
TTITLE3=Aussi Libre Que Moi
TTITLE4=Yalla
TTITLE5=Si Seulement Je Pouvais Lui Manquer
TTITLE6=Face À La Mer
TTITLE7=Pomme C
TTITLE8=Danser Encore
TTITLE9=La Fin De La Fin Du Monde
TTITLE10=C'est Dit
TTITLE11=Passage Des Cyclones
TTITLE12=Nathan
TTITLE13=C'est D'ici Que Je Vous Écris
TTITLE14=xxx
EXTD=YEAR: 2010
EXTT0=
EXTT1=
EXTT2=
EXTT3=
EXTT4=
EXTT5=
EXTT6=
EXTT7=
EXTT8=
EXTT9=
EXTT10=
EXTT11=
EXTT12=
EXTT13=
EXTT14=
PLAYORDER=
